<?xml version="1.0" standalone="no"?>
<!DOCTYPE svg PUBLIC "-//W3C//DTD SVG 20010904//EN"
 "http://www.w3.org/TR/2001/REC-SVG-20010904/DTD/svg10.dtd">
<svg version="1.0" xmlns="http://www.w3.org/2000/svg"
 width="1152.000000pt" height="1152.000000pt" viewBox="0 0 1152.000000 1152.000000"
 preserveAspectRatio="xMidYMid meet">
<metadata>
Created by potrace 1.14, written by Peter Selinger 2001-2017
</metadata>
<g transform="translate(0.000000,1152.000000) scale(0.100000,-0.100000)"
fill="#000000" stroke="none">
<path d="M1920 11486 c4 -19 4 -40 0 -46 -4 -7 -4 -26 0 -41 5 -16 5 -31 0
-34 -4 -3 -4 -21 0 -40 4 -19 4 -37 0 -40 -5 -3 -5 -18 -1 -33 5 -15 5 -36 1
-47 -4 -11 -4 -32 1 -47 4 -15 4 -30 -1 -33 -4 -3 -4 -21 0 -40 4 -19 4 -37 0
-40 -5 -3 -5 -18 -1 -33 5 -15 5 -36 1 -47 -4 -11 -4 -32 1 -47 4 -15 4 -30
-1 -33 -4 -3 -4 -21 0 -40 4 -19 4 -37 0 -40 -4 -3 -4 -20 0 -39 4 -19 4 -40
0 -46 -4 -7 -4 -26 0 -41 5 -16 5 -31 0 -34 -5 -3 -5 -18 0 -34 4 -15 4 -34 0
-41 -4 -6 -4 -27 0 -45 4 -18 4 -39 0 -45 -4 -7 -4 -24 0 -39 4 -14 4 -35 0
-46 -4 -11 -4 -27 0 -35 4 -8 4 -24 0 -35 -4 -11 -3 -31 2 -45 5 -14 8 -27 6
-29 -2 -2 7 -7 19 -12 13 -5 25 -4 28 1 3 6 15 6 30 0 17 -6 25 -6 25 1 0 6 5
7 11 3 15 -9 164 -9 178 0 6 4 11 3 11 -3 0 -6 11 -6 30 -1 17 5 30 5 30 0 0
-5 13 -5 30 0 17 5 32 5 35 0 3 -5 16 -5 30 0 15 6 25 6 25 0 0 -5 12 -5 30 0
18 5 30 5 30 0 0 -6 10 -6 24 0 13 5 27 6 30 3 8 -8 162 -7 175 2 6 3 11 2 11
-4 0 -6 11 -6 30 -1 17 5 30 5 30 0 0 -5 13 -5 30 0 17 5 32 5 35 0 3 -5 16
-5 30 0 15 6 25 6 25 0 0 -5 12 -5 30 0 18 5 30 5 30 0 0 -6 10 -6 24 0 13 5
27 6 30 3 8 -8 162 -7 175 2 6 3 11 2 11 -4 0 -6 11 -6 30 -1 17 5 30 5 30 0
0 -5 13 -5 30 0 17 5 32 5 35 0 3 -5 16 -5 30 0 15 6 25 6 25 0 0 -5 12 -5 30
0 18 5 30 5 30 0 0 -6 10 -6 25 0 14 5 27 5 30 0 3 -5 18 -5 35 0 17 5 32 5
35 0 3 -5 16 -5 30 0 15 6 25 6 25 0 0 -5 12 -5 30 0 18 5 30 5 30 0 0 -6 10
-6 25 0 15 6 27 6 30 0 3 -6 15 -6 29 0 13 5 27 6 30 3 9 -9 58 -10 84 -1 12
4 22 3 22 -2 0 -5 12 -5 30 0 18 5 30 5 30 0 0 -6 10 -6 25 0 16 6 25 6 25 0
0 -6 9 -6 25 0 15 6 25 6 25 0 0 -5 12 -5 30 0 18 5 30 5 30 0 0 -6 10 -6 25
0 16 6 25 6 25 0 0 -6 9 -6 25 0 15 6 25 6 25 0 0 -5 12 -5 30 0 18 5 30 5 30
0 0 -6 10 -6 25 0 16 6 25 6 25 0 0 -6 9 -6 25 0 15 6 25 6 25 0 0 -5 12 -5
30 0 18 5 30 5 30 0 0 -6 10 -6 25 0 16 6 25 6 25 0 0 -6 9 -6 25 0 15 6 25 6
25 0 0 -5 12 -5 30 0 18 5 30 5 30 0 0 -6 10 -6 25 0 16 6 25 6 25 0 0 -6 9
-6 25 0 15 6 25 6 25 0 0 -5 12 -5 30 0 18 5 30 5 30 0 0 -6 10 -6 25 0 16 6
25 6 25 0 0 -6 9 -6 25 0 15 6 25 6 25 0 0 -5 12 -5 30 0 18 5 30 5 30 0 0 -6
10 -6 25 0 16 6 25 6 25 0 0 -6 9 -6 25 0 15 6 25 6 25 0 0 -5 12 -5 30 0 19
5 30 5 30 -1 0 -6 4 -7 10 -4 15 9 91 12 96 3 3 -4 16 -3 29 2 15 6 25 6 25 0
0 -5 12 -5 28 -1 15 5 37 5 49 0 13 -5 25 -4 28 1 4 7 13 6 25 0 12 -6 21 -7
25 0 3 5 15 6 28 1 12 -5 34 -5 49 0 16 4 28 4 28 -1 0 -6 9 -6 23 -1 13 5 30
5 39 0 11 -6 19 -5 23 1 4 6 13 7 24 1 10 -6 23 -6 31 -1 8 5 21 5 30 0 9 -5
22 -5 30 0 8 5 21 5 30 0 9 -5 22 -5 30 0 7 4 24 4 36 0 14 -6 26 -5 29 0 4 7
13 6 25 0 12 -6 21 -7 25 0 3 5 15 6 28 1 12 -5 34 -5 49 0 16 4 28 4 28 -1 0
-6 9 -6 23 -1 13 5 30 5 39 0 11 -6 19 -5 23 1 4 6 13 7 24 1 10 -6 23 -6 31
-1 8 5 21 5 30 0 9 -5 22 -5 30 0 8 5 21 5 30 0 9 -5 22 -5 30 0 7 4 24 4 36
0 14 -6 26 -5 29 0 4 7 13 6 25 0 12 -6 21 -7 25 0 3 5 15 6 28 1 12 -5 34 -5
49 0 16 4 28 4 28 -1 0 -6 10 -6 25 0 15 6 26 6 30 0 4 -7 13 -7 24 0 10 5 20
7 23 5 8 -8 108 -11 108 -4 0 4 14 4 30 -1 17 -5 30 -5 30 0 0 5 13 5 30 0 17
-5 30 -6 30 -2 0 4 14 7 30 7 17 0 30 -2 30 -5 0 -7 70 -4 77 4 3 3 14 1 24
-4 11 -7 20 -7 24 0 4 6 15 6 30 0 16 -6 25 -6 25 0 0 5 6 7 13 5 21 -9 107
-11 107 -4 0 4 13 4 30 -1 17 -5 30 -5 30 0 0 5 13 5 30 0 17 -5 30 -6 30 -2
0 4 14 7 30 7 17 0 30 -2 30 -5 0 -7 77 -3 89 5 5 3 12 1 16 -5 4 -6 13 -7 23
-1 10 5 24 6 33 1 8 -5 21 -5 29 0 7 4 24 4 37 -1 14 -5 23 -5 23 1 0 6 9 6
23 1 13 -5 30 -5 37 -1 8 5 22 4 31 -1 11 -5 27 -5 43 1 15 5 26 6 26 0 0 -5
12 -5 30 0 18 5 30 5 30 0 0 -6 10 -6 25 0 16 6 25 6 25 0 0 -6 9 -6 25 0 15
6 25 6 25 0 0 -5 12 -5 30 0 18 5 30 5 30 0 0 -6 10 -6 25 0 16 6 25 6 25 0 0
-6 9 -6 25 0 15 6 25 6 25 0 0 -5 12 -5 30 0 18 5 30 5 30 0 0 -6 10 -6 25 0
16 6 25 6 25 0 0 -6 9 -6 25 0 15 6 25 6 25 0 0 -5 12 -5 30 0 18 5 30 5 30 0
0 -6 10 -6 25 0 16 6 25 6 25 0 0 -6 9 -6 25 0 15 6 25 6 25 0 0 -5 12 -5 30
0 18 5 30 5 30 0 0 -6 10 -6 25 0 16 6 25 6 25 0 0 -6 9 -6 25 0 15 6 25 6 25
0 0 -5 12 -5 30 0 18 5 30 5 30 0 0 -6 10 -6 25 0 16 6 25 6 25 0 0 -6 9 -6
25 0 15 6 25 6 25 0 0 -5 12 -5 30 0 18 5 30 5 30 0 0 -6 10 -6 25 0 16 6 25
6 25 0 0 -6 9 -6 25 0 15 6 25 6 25 0 0 -5 12 -5 30 0 19 5 30 5 30 -1 0 -6 4
-7 10 -4 15 9 91 12 96 3 3 -4 16 -3 29 2 15 6 27 6 30 0 3 -6 15 -6 30 0 15
6 25 6 25 0 0 -5 12 -5 30 0 18 5 30 5 30 0 0 -6 10 -6 24 0 13 5 27 6 30 3 8
-9 86 -9 86 -1 0 4 11 3 25 -2 15 -6 25 -6 25 0 0 5 12 5 30 0 17 -5 30 -5 30
0 0 5 13 5 30 0 17 -5 30 -5 30 -1 0 8 42 7 57 -2 4 -3 19 -1 32 4 17 7 21 13
14 20 -7 7 -8 22 -3 40 5 16 5 31 0 34 -4 3 -5 20 -1 37 4 18 4 44 1 58 -4 14
-3 34 1 46 4 11 4 27 -1 34 -5 7 -5 23 0 34 4 12 4 30 0 41 -4 11 -4 29 0 40
4 11 4 31 0 45 -4 14 -3 34 1 46 4 11 4 27 -1 34 -4 7 -4 25 0 40 4 15 4 33 0
40 -4 7 -4 24 0 39 4 14 3 38 -1 53 -4 15 -4 30 1 33 4 3 4 21 0 40 -4 19 -4
37 0 40 5 3 5 18 1 33 -5 15 -5 36 -1 47 4 11 4 32 -1 47 -4 15 -4 30 1 33 4
3 4 21 0 40 -4 19 -4 37 0 40 5 3 5 18 1 33 -5 15 -5 36 -1 47 4 11 4 32 -1
47 -4 15 -4 30 1 33 4 3 4 20 0 39 -4 19 -5 37 -2 40 3 4 -1725 6 -3840 6
l-3846 0 8 -34z"/>
<path d="M2510 9603 c0 -4 -19 -8 -43 -9 -61 -1 -133 -11 -202 -30 -33 -8 -71
-18 -85 -20 -13 -3 -27 -8 -30 -12 -3 -4 -14 -9 -25 -10 -29 -5 -193 -84 -240
-116 -22 -14 -48 -32 -58 -39 -11 -6 -27 -19 -37 -28 -10 -8 -31 -24 -45 -35
-34 -24 -149 -141 -172 -173 -9 -14 -24 -33 -32 -42 -67 -74 -137 -206 -192
-362 -21 -59 -38 -109 -38 -112 1 -9 -13 -89 -20 -110 -3 -11 -7 -1667 -8
-3680 -2 -3562 -2 -3663 17 -3760 10 -55 21 -109 24 -121 10 -47 88 -233 114
-275 16 -24 29 -48 29 -52 1 -5 20 -33 42 -63 23 -30 41 -57 41 -59 0 -3 8
-13 17 -23 10 -10 41 -44 70 -74 29 -31 71 -71 94 -89 23 -19 46 -39 53 -44
82 -77 355 -207 486 -232 171 -32 111 -32 3510 -30 1834 2 3349 5 3365 9 25 6
57 12 110 22 6 1 16 5 23 9 6 5 12 6 12 3 0 -11 178 58 258 100 155 81 259
164 392 314 41 46 126 172 135 199 3 11 11 21 16 21 5 0 9 6 9 13 0 6 14 39
30 72 16 33 30 68 30 77 0 9 4 19 9 22 5 4 12 24 16 46 4 22 11 42 16 46 5 3
7 9 5 13 -5 7 3 49 21 116 4 17 9 1677 10 3690 2 3562 2 3663 -17 3760 -10 55
-21 109 -24 121 -10 47 -88 233 -114 275 -16 24 -29 49 -31 54 -1 6 -20 34
-41 63 -22 29 -40 55 -40 57 0 6 -108 122 -138 149 -13 12 -38 34 -55 49 -89
80 -359 229 -414 229 -4 0 -16 4 -26 10 -10 5 -26 11 -35 13 -9 2 -38 8 -65
14 -64 15 -193 33 -222 32 -84 -4 -103 -3 -113 3 -7 4 -12 3 -12 -3 0 -6 -6
-8 -13 -5 -19 7 -97 11 -97 4 0 -3 -11 -5 -25 -5 -14 0 -25 3 -25 7 0 4 -11 3
-25 -2 -16 -6 -25 -6 -25 0 0 6 -9 6 -24 0 -13 -5 -26 -7 -29 -4 -7 7 -87 11
-87 4 0 -3 -11 -5 -25 -5 -14 0 -25 3 -25 7 0 4 -11 3 -25 -2 -17 -6 -25 -6
-25 1 0 6 -6 7 -17 0 -10 -5 -26 -5 -40 0 -14 5 -23 5 -23 -1 0 -6 -9 -6 -25
0 -15 6 -26 6 -30 0 -4 -7 -13 -6 -26 0 -10 6 -19 7 -19 3 0 -4 -13 -8 -30 -8
-16 0 -30 3 -30 7 0 4 -11 3 -25 -2 -16 -6 -25 -6 -25 1 0 6 -6 6 -18 0 -10
-5 -24 -6 -32 -1 -8 5 -21 5 -31 -1 -12 -6 -20 -5 -24 1 -4 6 -11 7 -17 4 -16
-10 -68 -11 -68 -1 0 4 -9 3 -19 -3 -13 -7 -22 -7 -26 0 -4 6 -13 7 -24 1 -10
-6 -23 -6 -31 -1 -8 5 -21 5 -31 -1 -12 -6 -20 -5 -24 1 -4 6 -11 7 -18 3 -15
-9 -57 -10 -57 -2 0 4 -13 4 -28 -1 -16 -4 -36 -4 -45 2 -11 6 -17 5 -17 -1 0
-7 -8 -7 -25 -1 -15 6 -26 6 -30 0 -4 -7 -13 -6 -26 0 -10 6 -19 7 -19 3 0 -4
-13 -8 -30 -8 -16 0 -30 4 -30 8 0 4 -9 3 -19 -3 -13 -7 -22 -7 -26 0 -4 6
-13 7 -24 1 -9 -5 -23 -6 -31 -1 -7 4 -24 4 -37 -1 -14 -5 -23 -5 -23 1 0 6
-9 6 -23 1 -13 -5 -30 -5 -39 0 -11 6 -19 5 -23 -1 -4 -7 -13 -7 -26 0 -12 7
-19 7 -19 1 0 -7 -9 -7 -25 -1 -15 6 -25 6 -25 0 0 -5 -12 -5 -29 0 -16 4 -32
6 -34 3 -5 -5 -42 -5 -99 -1 -21 2 -38 1 -38 -2 0 -3 -11 -5 -25 -5 -14 0 -25
3 -25 7 0 4 -11 3 -25 -2 -17 -6 -25 -6 -25 1 0 6 -6 7 -17 0 -10 -5 -26 -5
-40 0 -14 5 -23 5 -23 -1 0 -6 -9 -6 -25 0 -15 6 -26 6 -30 0 -4 -7 -13 -6
-26 0 -12 7 -19 7 -19 1 0 -6 -11 -6 -27 -2 -16 5 -37 5 -48 1 -11 -4 -31 -4
-45 0 -14 4 -35 3 -48 -1 -13 -5 -22 -5 -22 2 0 6 -6 6 -18 0 -11 -6 -24 -6
-35 0 -11 7 -17 6 -17 -1 0 -8 -6 -8 -20 0 -13 7 -20 7 -20 1 0 -7 -9 -7 -25
-1 -15 6 -26 6 -30 0 -4 -7 -13 -6 -26 0 -10 6 -19 7 -19 3 0 -4 -13 -8 -30
-8 -16 0 -30 4 -30 8 0 4 -9 3 -19 -3 -13 -7 -22 -7 -26 0 -4 6 -13 7 -24 1
-9 -5 -23 -6 -31 -1 -7 4 -24 4 -37 -1 -14 -5 -23 -5 -23 1 0 6 -9 6 -23 1
-13 -5 -30 -5 -39 0 -11 6 -19 5 -23 -1 -4 -7 -13 -7 -26 0 -12 7 -19 7 -19 1
0 -7 -9 -7 -25 -1 -15 6 -25 6 -25 0 0 -5 -12 -5 -29 0 -16 4 -32 6 -34 3 -5
-5 -42 -5 -99 -1 -21 2 -38 1 -38 -2 0 -3 -11 -5 -25 -5 -14 0 -25 3 -25 7 0
4 -11 3 -25 -2 -17 -6 -25 -6 -25 1 0 6 -6 7 -17 0 -10 -5 -26 -5 -40 0 -14 5
-23 5 -23 -1 0 -6 -9 -6 -25 0 -15 6 -26 6 -30 0 -4 -7 -13 -6 -26 0 -12 7
-19 7 -19 1 0 -6 -11 -6 -27 -2 -16 5 -37 5 -48 1 -11 -4 -31 -4 -45 0 -14 4
-35 3 -48 -1 -13 -5 -22 -5 -22 2 0 6 -6 6 -18 0 -10 -5 -24 -6 -32 -1 -7 4
-23 5 -35 0 -12 -4 -29 -4 -38 1 -11 7 -17 6 -17 0 0 -6 -6 -8 -13 -5 -19 7
-97 11 -97 4 0 -3 -11 -5 -25 -5 -14 0 -25 3 -25 7 0 4 -11 3 -25 -2 -16 -6
-25 -6 -25 0 0 6 -9 6 -24 0 -13 -5 -26 -7 -29 -4 -7 7 -87 11 -87 4 0 -3 -11
-5 -25 -5 -14 0 -25 3 -25 7 0 4 -11 3 -25 -2 -17 -6 -25 -6 -25 1 0 6 -6 7
-17 0 -10 -5 -26 -5 -40 0 -14 5 -23 5 -23 -1 0 -6 -9 -6 -25 0 -15 6 -26 6
-30 0 -4 -7 -13 -6 -26 0 -10 6 -19 7 -19 3 0 -4 -13 -8 -30 -8 -16 0 -30 3
-30 7 0 4 -11 3 -25 -2 -16 -6 -25 -6 -25 1 0 6 -6 6 -18 0 -10 -5 -24 -6 -32
-1 -8 5 -21 5 -31 -1 -12 -6 -20 -5 -24 1 -4 6 -11 7 -17 4 -16 -10 -68 -11
-68 -1 0 4 -9 3 -19 -3 -13 -7 -22 -7 -26 0 -4 6 -13 7 -24 1 -10 -6 -23 -6
-31 -1 -8 5 -21 5 -31 -1 -12 -6 -20 -5 -24 1 -4 6 -11 7 -18 3 -13 -8 -57
-11 -57 -3 0 7 -69 4 -76 -3 -4 -4 -15 -2 -25 4 -13 6 -19 6 -19 0 0 -7 -8 -7
-22 -2 -13 5 -32 5 -43 1 -11 -4 -25 -3 -32 2 -7 5 -14 5 -18 -2 -4 -7 -12 -7
-26 0 -12 7 -19 7 -19 1 0 -7 -8 -7 -22 -2 -13 5 -32 5 -43 1 -11 -4 -25 -3
-32 2 -7 5 -14 5 -18 -2 -4 -7 -12 -7 -26 0 -12 7 -19 7 -19 1 0 -7 -8 -7 -22
-2 -13 5 -32 5 -43 1 -11 -4 -25 -3 -32 2 -7 5 -14 5 -18 -2 -4 -7 -12 -7 -26
0 -12 7 -19 7 -19 1 0 -7 -8 -7 -24 -1 -13 5 -26 6 -29 4 -9 -9 -71 -10 -84
-1 -6 4 -14 4 -17 -2 -5 -7 -15 -7 -31 -1 -14 5 -25 6 -25 2 0 -9 -63 -8 -78
2 -6 3 -13 2 -17 -4 -4 -7 -12 -7 -25 0 -12 6 -21 7 -25 0 -4 -6 -15 -6 -30 0
-16 6 -25 6 -25 0 0 -5 -9 -6 -22 -1 -12 4 -37 5 -55 1 -19 -5 -33 -4 -33 1 0
6 -8 5 -19 -1 -13 -7 -22 -7 -26 0 -4 7 -13 7 -24 0 -12 -6 -22 -5 -28 1 -8 8
-13 8 -17 0 -5 -7 -15 -7 -31 -1 -14 5 -25 6 -25 2 0 -9 -64 -7 -79 3 -6 3
-11 3 -11 -2z m2380 -2242 c0 6 7 6 19 -1 14 -7 22 -7 26 0 4 7 11 7 18 2 7
-5 21 -6 32 -2 11 4 30 4 43 -1 14 -5 22 -5 22 2 0 6 7 6 19 -1 12 -6 22 -6
26 -1 5 10 43 7 53 -4 3 -2 11 0 18 6 8 7 14 7 18 0 5 -7 15 -7 31 -1 16 6 25
6 25 0 0 -6 9 -6 23 -1 13 5 30 5 37 1 8 -5 22 -4 31 1 11 6 20 5 24 -1 4 -7
12 -7 24 0 10 5 21 6 25 3 8 -9 66 -10 66 -1 0 4 11 3 25 -2 16 -6 25 -6 25 0
0 6 9 6 25 0 13 -5 26 -6 29 -2 5 8 80 6 102 -2 7 -3 16 -1 19 4 4 6 13 7 23
2 17 -9 70 -7 79 2 3 3 16 1 29 -4 16 -6 24 -6 24 1 0 6 7 6 19 -1 14 -7 22
-7 26 0 4 7 11 7 18 2 7 -5 21 -6 32 -2 11 4 30 4 43 -1 14 -5 22 -5 22 2 0 6
7 6 19 -1 12 -6 22 -6 26 -1 5 10 36 7 54 -4 5 -3 12 -1 16 4 3 7 15 7 30 1
15 -6 27 -6 30 0 4 7 13 6 25 0 13 -7 21 -7 25 0 4 7 12 7 23 1 10 -6 23 -6
34 0 12 6 18 6 18 0 0 -7 9 -7 25 -1 17 6 25 6 25 -1 0 -6 5 -7 10 -4 14 9
145 9 159 1 6 -4 11 -3 11 3 0 7 8 7 25 1 16 -6 25 -6 25 0 0 6 9 6 23 1 14
-5 30 -5 40 0 10 6 17 6 17 1 0 -5 11 -8 24 -7 18 2 25 -3 29 -21 2 -13 1 -24
-4 -24 -4 0 -4 -13 1 -30 5 -17 5 -30 0 -30 -5 0 -5 -12 -1 -28 5 -15 5 -37 0
-49 -5 -13 -4 -25 1 -28 6 -4 7 -13 1 -24 -5 -9 -6 -23 -2 -29 4 -7 4 -35 1
-62 -4 -28 -3 -50 1 -50 4 0 4 -13 -1 -30 -5 -16 -6 -30 -2 -30 8 0 7 -68 -1
-76 -3 -3 -2 -17 3 -30 6 -14 6 -24 0 -24 -5 0 -5 -12 0 -30 5 -17 5 -30 0
-30 -5 0 -5 -13 0 -30 5 -17 5 -30 0 -30 -5 0 -5 -13 0 -30 5 -17 5 -30 0 -30
-5 0 -5 -12 -1 -28 5 -15 5 -37 0 -49 -5 -13 -4 -25 1 -28 6 -4 7 -13 1 -24
-5 -9 -6 -23 -2 -29 4 -7 4 -35 1 -62 -4 -28 -3 -50 1 -50 4 0 4 -13 -1 -30
-5 -16 -6 -30 -2 -30 8 0 7 -68 -1 -76 -3 -3 -2 -17 3 -30 6 -14 6 -24 0 -24
-5 0 -5 -12 0 -30 5 -17 5 -30 0 -30 -5 0 -5 -13 0 -30 5 -17 5 -30 0 -30 -5
0 -5 -13 0 -30 5 -17 5 -30 0 -30 -5 0 -5 -12 -1 -28 5 -15 5 -37 0 -49 -5
-13 -4 -25 1 -28 7 -4 6 -13 0 -25 -6 -10 -6 -21 -2 -24 5 -3 8 -15 7 -28 -2
-27 22 -40 48 -26 11 5 17 5 17 -1 0 -7 9 -7 25 -1 14 5 25 6 25 2 0 -4 18 -7
40 -7 22 0 40 3 40 7 0 4 11 3 25 -2 16 -6 26 -6 31 1 3 6 11 6 17 2 13 -9 75
-8 84 1 3 2 16 1 29 -4 16 -6 24 -6 24 1 0 6 7 6 19 -1 14 -7 22 -7 26 0 4 7
11 7 18 2 7 -5 21 -6 32 -2 11 4 30 4 43 -1 14 -5 22 -5 22 2 0 6 7 6 19 -1
14 -7 22 -7 26 0 4 7 11 7 18 2 7 -5 21 -6 32 -2 11 4 30 4 43 -1 14 -5 22 -5
22 2 0 6 7 6 19 -1 14 -7 22 -7 26 0 4 7 11 7 18 2 7 -5 21 -6 32 -2 11 4 30
4 43 -1 14 -5 22 -5 22 2 0 6 7 6 19 -1 12 -6 22 -6 26 -1 5 9 42 7 53 -3 2
-3 13 -1 23 5 13 7 19 6 19 -1 0 -6 5 -8 11 -4 6 4 33 7 59 7 26 0 53 -3 59
-7 6 -4 11 -3 11 3 0 7 8 7 25 1 16 -6 25 -6 25 1 0 6 6 6 18 0 10 -5 24 -6
32 -1 8 5 21 5 31 -1 11 -6 20 -5 24 1 4 7 12 7 23 1 10 -6 23 -6 34 0 12 6
18 6 18 0 0 -7 9 -7 25 -1 14 5 25 6 25 2 0 -4 11 -7 25 -7 14 0 25 4 25 8 0
4 9 3 19 -3 14 -7 22 -7 26 0 5 8 11 7 20 0 8 -7 18 -9 23 -6 6 3 12 -8 14
-25 3 -16 1 -32 -4 -35 -4 -3 -4 -14 2 -24 7 -13 7 -21 0 -25 -7 -4 -7 -12 -1
-23 6 -10 6 -23 0 -34 -5 -10 -6 -18 -2 -18 10 0 7 -75 -2 -90 -3 -6 -2 -10 4
-10 7 0 7 -8 1 -25 -6 -16 -6 -25 0 -25 6 0 6 -9 0 -25 -5 -14 -6 -25 -2 -25
4 0 7 -11 7 -25 0 -14 -3 -25 -7 -25 -4 0 -3 -11 2 -25 6 -16 6 -25 0 -25 -6
0 -6 -9 0 -25 6 -16 6 -25 0 -25 -6 0 -6 -9 0 -25 6 -15 6 -26 -1 -30 -6 -4
-6 -13 0 -23 6 -10 6 -23 0 -34 -5 -10 -6 -18 -2 -18 10 0 7 -75 -2 -90 -3 -6
-2 -10 4 -10 7 0 7 -8 1 -25 -6 -16 -6 -25 0 -25 6 0 6 -9 0 -25 -5 -14 -6
-25 -2 -25 4 0 7 -11 7 -25 0 -14 -3 -25 -7 -25 -4 0 -3 -11 2 -25 6 -16 6
-25 0 -25 -6 0 -6 -9 0 -25 6 -16 6 -25 0 -25 -6 0 -6 -9 0 -25 6 -15 6 -26 0
-30 -7 -4 -6 -13 0 -26 8 -13 7 -19 0 -19 -7 0 -8 -6 0 -19 7 -13 7 -22 0 -26
-7 -4 -7 -12 0 -25 7 -13 7 -21 0 -25 -6 -4 -7 -11 -4 -17 10 -17 11 -51 2
-70 -6 -12 -5 -18 2 -18 8 0 8 -6 0 -20 -8 -14 -8 -20 0 -20 8 0 8 -6 0 -20
-8 -14 -8 -20 0 -20 8 0 8 -6 0 -20 -8 -14 -8 -20 0 -20 8 0 8 -6 0 -20 -8
-14 -8 -20 0 -20 8 0 8 -6 0 -20 -8 -14 -8 -20 0 -20 8 0 8 -6 0 -20 -8 -14
-8 -20 0 -20 8 0 8 -6 0 -20 -8 -14 -8 -20 0 -20 8 0 8 -6 0 -20 -8 -14 -8
-20 0 -20 8 0 8 -6 0 -20 -8 -14 -8 -20 0 -20 8 0 8 -6 0 -20 -8 -14 -8 -20 0
-20 8 0 8 -6 0 -20 -8 -14 -8 -20 0 -20 8 0 8 -6 0 -20 -8 -14 -8 -20 0 -20 8
0 8 -6 0 -20 -8 -14 -8 -20 0 -20 7 0 8 -6 0 -19 -7 -13 -7 -20 0 -23 7 -2 5
-10 -3 -22 -12 -16 -25 -19 -82 -17 -37 1 -70 2 -74 3 -3 0 -10 0 -16 -1 -8
-2 -149 -1 -465 1 -19 0 -64 -1 -100 -1 -36 0 -72 0 -80 0 -8 1 -44 1 -80 0
-36 0 -72 0 -80 0 -8 1 -44 1 -80 0 -36 0 -72 0 -80 0 -8 1 -44 1 -80 0 -36 0
-72 0 -80 0 -8 1 -44 1 -80 0 -36 0 -72 0 -80 0 -8 1 -43 0 -78 -1 -60 -3 -83
-12 -63 -25 7 -3 7 -15 1 -30 -6 -15 -6 -27 0 -30 6 -3 6 -15 0 -30 -6 -15 -6
-27 0 -30 6 -3 6 -15 0 -30 -6 -15 -6 -27 0 -30 6 -3 6 -15 0 -29 -5 -13 -6
-26 -3 -29 8 -8 9 -97 1 -97 -4 0 -3 -13 2 -30 5 -18 5 -30 0 -30 -6 0 -6 -10
-1 -22 5 -13 5 -32 1 -43 -4 -11 -4 -27 1 -36 4 -8 4 -21 -1 -29 -5 -8 -5 -21
0 -30 5 -9 5 -21 2 -27 -8 -13 -7 -81 2 -90 3 -3 1 -14 -4 -24 -7 -11 -7 -20
0 -24 5 -3 6 -15 1 -28 -5 -12 -5 -34 0 -49 4 -16 4 -28 -1 -28 -5 0 -5 -13 0
-30 5 -17 5 -30 0 -30 -5 0 -5 -13 0 -30 5 -17 5 -30 0 -30 -5 0 -5 -13 0 -30
5 -18 5 -30 0 -30 -6 0 -6 -10 0 -24 5 -13 6 -27 3 -30 -8 -8 -9 -76 -1 -76 4
0 3 -13 -2 -30 -5 -16 -5 -30 -1 -30 4 0 4 -27 1 -60 -3 -33 -3 -60 1 -60 4 0
4 -13 -1 -30 -5 -17 -5 -30 0 -30 5 0 5 -13 0 -30 -5 -17 -5 -30 0 -30 5 0 5
-13 0 -30 -5 -17 -6 -30 -2 -30 4 0 7 -17 6 -37 -1 -27 -6 -38 -22 -44 -12 -5
-24 -5 -26 0 -3 4 -27 5 -54 1 -27 -3 -58 -3 -68 0 -10 4 -30 4 -44 0 -14 -3
-42 -3 -62 0 -21 4 -40 5 -42 2 -9 -8 -106 -7 -106 1 0 5 -4 6 -8 3 -10 -6
-60 -7 -187 -6 -49 1 -93 0 -97 0 -13 -2 -127 -1 -135 1 -5 1 -12 0 -18 -1 -5
-1 -62 -1 -125 0 -63 0 -122 1 -130 1 -8 -1 -35 0 -60 0 -25 0 -51 1 -57 0 -7
0 -41 -1 -75 -1 -126 0 -172 -1 -180 -6 -4 -3 -8 -1 -8 3 0 5 -30 6 -67 3 -38
-3 -90 -3 -116 0 -26 4 -50 4 -52 2 -3 -3 -31 -4 -62 -3 -32 1 -73 2 -90 1
-28 -1 -33 3 -33 22 0 13 0 31 0 41 0 9 0 24 0 32 0 8 0 22 0 30 0 8 0 22 0
30 0 8 0 22 0 30 0 8 0 22 0 30 0 8 0 22 0 30 0 8 0 22 0 30 0 8 0 22 0 30 0
8 0 22 0 30 0 8 0 22 0 30 0 8 0 22 0 30 0 8 0 22 0 30 0 8 0 22 0 30 0 8 0
22 0 30 0 8 0 22 0 30 0 8 0 22 0 30 0 8 0 21 0 28 1 6 -1 33 -2 60 -2 26 0
47 4 47 4 0 3 14 -2 30 -5 18 -5 30 0 30 6 0 6 10 1 23 -5 12 -5 31 -1 42 4
11 4 27 -1 36 -4 8 -4 21 1 29 5 8 5 21 0 31 -5 9 -7 19 -4 22 9 9 10 77 2 90
-3 6 -2 19 3 28 6 11 5 20 -1 24 -5 3 -6 15 -1 28 5 12 5 34 0 49 -4 16 -4 28
1 28 5 0 5 13 0 30 -5 17 -5 30 0 30 5 0 5 13 0 30 -5 17 -5 32 0 35 5 3 5 16
0 30 -6 15 -6 27 0 30 6 4 7 13 1 24 -6 10 -6 23 -1 31 5 8 5 21 0 30 -5 9 -5
22 0 30 5 8 5 21 1 29 -4 9 -5 27 -1 41 12 43 -3 57 -67 59 -32 2 -65 3 -73 2
-8 0 -49 0 -90 0 -41 1 -82 1 -90 0 -8 0 -42 0 -75 0 -33 0 -67 0 -75 0 -8 0
-42 0 -75 0 -33 1 -67 1 -75 0 -8 0 -49 0 -90 0 -41 1 -82 1 -90 0 -8 0 -42 0
-75 0 -33 0 -67 0 -75 0 -8 0 -42 0 -75 0 -33 1 -67 1 -75 0 -8 0 -49 0 -90 0
-41 1 -82 1 -90 0 -41 -2 -135 1 -141 5 -4 2 -10 0 -14 -6 -4 -6 -11 -7 -17
-4 -6 4 -42 6 -81 5 -39 -1 -68 1 -65 5 4 3 3 17 -2 30 -6 15 -6 24 0 24 6 0
6 9 0 25 -6 15 -6 26 0 30 7 4 6 13 0 25 -7 13 -7 21 1 26 7 4 8 9 0 17 -6 6
-7 16 -1 28 7 11 7 20 0 24 -6 4 -6 15 0 30 5 14 6 25 2 25 -9 0 -6 75 3 90 3
6 2 10 -4 10 -7 0 -7 8 -1 26 6 14 7 23 2 21 -8 -6 -8 145 1 160 3 5 2 15 -3
23 -5 9 -5 19 1 26 7 8 6 14 -1 19 -7 4 -7 12 0 25 6 12 7 21 0 25 -6 4 -6 15
0 30 6 16 6 25 0 25 -6 0 -6 9 0 25 6 16 6 25 0 25 -6 0 -6 9 0 25 5 14 6 25
2 25 -4 0 -7 11 -7 25 0 14 3 25 7 25 4 0 4 10 -1 23 -5 12 -5 32 0 45 5 13 5
22 -1 22 -6 0 -6 9 0 25 6 16 6 25 0 25 -6 0 -6 9 0 25 5 14 6 25 2 25 -4 0
-7 11 -7 25 0 14 3 25 7 25 4 0 3 11 -2 25 -6 15 -6 26 1 30 5 4 6 11 3 17
-10 17 -11 51 -2 71 6 11 5 17 -2 17 -8 0 -8 6 0 20 8 14 8 20 0 20 -8 0 -8 6
0 20 8 14 8 20 0 20 -8 0 -8 6 0 20 8 14 8 20 0 20 -8 0 -8 6 0 20 8 14 8 20
0 20 -8 0 -8 6 0 20 8 14 8 20 0 20 -8 0 -8 6 0 20 8 14 8 20 0 20 -8 0 -8 6
0 20 8 14 8 20 0 20 -8 0 -8 6 0 20 8 14 8 20 0 20 -8 0 -8 6 0 20 8 14 8 20
0 20 -8 0 -8 6 0 20 8 14 8 20 0 20 -7 0 -8 6 0 19 7 14 7 22 -1 27 -7 4 -8 9
0 17 7 7 7 16 0 29 -6 12 -6 18 0 18 7 0 7 8 2 23 -5 12 -5 31 -1 42 4 11 6
23 3 27 -2 5 7 4 21 -2 16 -6 26 -6 26 0 0 6 9 6 25 0 15 -6 26 -6 30 0 4 7
13 6 25 0 13 -7 21 -7 26 1 4 7 10 7 16 1 7 -7 19 -7 34 -2 15 6 24 6 24 0 0
-6 9 -6 23 -1 12 4 33 5 47 1 14 -4 33 -3 43 2 10 5 17 5 17 -1 0 -7 9 -7 25
-1 14 5 25 6 25 2 0 -4 11 -7 25 -7 14 0 25 2 25 5 0 7 78 3 97 -4 7 -3 13 -1
13 5 0 6 6 7 17 0 9 -5 26 -5 38 -1 12 5 28 4 35 0 8 -5 19 -5 26 1 8 7 14 7
18 0 5 -7 15 -7 31 -1 16 6 25 6 25 0 0 -6 9 -6 23 -1 13 5 30 5 37 1 8 -5 22
-4 31 1 11 6 20 5 24 -1 4 -7 13 -7 26 0 10 6 19 7 19 3 0 -10 52 -9 68 1 6 3
13 2 17 -4 4 -6 12 -7 24 -1 10 6 23 6 31 1 8 -5 21 -5 31 1 11 6 20 5 24 -1
4 -7 13 -7 26 0 12 7 19 7 19 1 0 -6 11 -6 28 -2 15 5 37 4 50 0 12 -5 22 -5
22 -1 0 9 125 6 139 -3 6 -3 11 -2 11 4 0 7 8 7 25 1 16 -6 25 -6 25 1 0 6 6
6 18 0 10 -5 24 -6 32 -1 8 5 21 5 31 -1 11 -6 20 -5 24 1 3 5 13 6 22 3 13
-5 15 -2 11 15 -4 12 -2 22 2 22 5 0 5 13 0 30 -5 18 -5 32 1 35 5 4 5 13 0
23 -5 9 -5 26 -1 37 4 11 4 27 -1 36 -4 8 -4 21 1 29 5 8 5 21 0 30 -5 9 -5
21 -2 27 4 7 6 29 4 50 -1 21 -3 44 -2 51 0 6 0 19 0 27 0 8 0 22 0 30 0 8 0
22 0 30 0 8 0 22 0 30 0 8 0 22 0 30 0 8 0 22 0 30 0 8 0 22 0 30 0 8 0 22 0
30 0 8 0 22 0 30 0 8 0 22 0 30 0 8 0 22 0 30 0 8 0 22 0 30 0 8 0 22 0 30 0
8 0 22 0 30 0 8 0 22 0 30 0 8 0 22 0 30 0 8 0 21 0 28 1 6 -1 33 -2 60 -2 26
0 47 4 47 4 0 3 14 -2 30 -5 17 -5 30 0 30 6 0 6 10 1 23 -5 12 -5 31 -1 43 5
11 4 27 0 34 -5 8 -5 21 0 30 5 9 5 22 0 30 -5 8 -5 21 0 29 10 20 10 32 -1
53 -6 10 -5 19 1 23 6 4 7 12 1 22 -5 9 -5 29 -1 45 5 15 5 28 0 28 -5 0 -5
13 0 30 5 17 5 30 0 30 -5 0 -5 13 0 30 5 17 5 30 1 30 -5 0 -6 12 -3 26 5 30
37 45 70 33 14 -5 22 -5 22 2z"/>
</g>
</svg>
